<svg xmlns="http://www.w3.org/2000/svg" width="16" height="16"><path fill="#e0e0e0" fill-opacity=".8" d="m9.0002163 1.9992156a3.0004279 3.0004279 0 0 0 -3.0004281 2.777396 3.0004279 3.0004279 0 1 0 -3.0004277 5.0477198v2.1763096a1.0001426 1.0001426 0 0 0 1.0001426 1.000143h6.0008559a1.0001426 1.0001426 0 0 0 1.000143-1.000143v-1.000142l3.000427 2.000285v-6.0008554l-3.000427 2.0002854v-1.7702526a3.0004279 3.0004279 0 0 0 -2.0002857-5.2307458zm-4.0005707 9.5013544a.50007128.50007128 0 0 1 -.5000713-.500071v-2.1253031a.37505348.37505348 0 0 0 -.3750534-.3750535 1.5002139 1.5002139 0 1 1 1.1251603-2.3753385 1.1876693 1.1876693 0 0 0 2.2503211-.750107 1.5002139 1.5002139 0 1 1 2.2503208.8751248.37505348.37505348 0 0 0 -.2500349.3750535v4.3756238a.50007128.50007128 0 0 1 -.5000719.500071z"/></svg>