<svg xmlns="http://www.w3.org/2000/svg" width="16" height="16"><path d="m3 7.4025373-1.997257 1.997257v-.00257l1.997257-1.9972586z"/><path fill="#ff4545" d="m4.5189439 5.8810218 1.4417967-1.4417967-.4054517-.2717298-1.1100635 1.6646665z"/><path fill="#45d7ff" d="m15.000686 6.6002057v7.4001373c0 .575176-.425167 1.000343-1.000343 1.000343h-7.4001373l4.2156693-4.216527c.117435.213441.184296.457741.184296.715755v1.500086h1.999829v-4.3999657z"/><path d="m9.3997943.99931425h.00343l-2.4001384 2.40013715v-.00257z"/><path fill="#80ff45" d="M9.403223.99931425h4.59712c.575176 0 1.000343.42516715 1.000343 1.00034285v4.6005486l-2.000686 1.9998286v-5.6000343h-3.9996571v2.1326933l1.4443681-.965198 1.110064 1.6646665-2.9993147 1.9998286c-.3360192.2237271-.7749014.2237271-1.1100634 0l-2.926453-1.9509686 1.4417967-1.4417967 1.0389165.6934682v-1.7332419l.00343-.00257v.00257zM.99931425 14.000343v-4.6005487l.003429-.00257v.00257l1.99725675-1.997257v5.5974627h1.9998286v-1.500086c0-.822904.6771815-1.5000854 1.5000857-1.5000854h3.0001714c.5640323 0 1.0603463.3188754 1.3157893.7843304l-4.2156693 4.216527h-4.6005486c-.5751757 0-1.00034285-.425167-1.00034285-1.000343z"/><path fill="#ff4545" d="m1.002743 9.3972227v-7.479856c.0385736-.5331733.4491685-.91805245.9969141-.91805245h7.4001372l-2.3967084 2.39756555v-.3968798h-4.0005143v4.3999657l-.0025716.0025716v-.00257z"/></svg>
