<svg xmlns="http://www.w3.org/2000/svg" width="16" height="16"><path fill="#ccc" d="m3 4v2.5h2.5v-2.5zm7.5 0v2.4023438l2.5-1.4433594v-.9589844z"/><path fill="#e0e0e0" fill-opacity=".8" d="M3 6.5v2.5c0 .5873467.0791407 1.121615.2207031 1.605469l2.2910157-1.3222659c-.0082716-.091618-.0117188-.1859049-.0117188-.2832031v-2.5zm10 .7675781-2.5 1.4433594v.2890625c0 2.387594-2.5638843 3.064021-4.0195312 2.03125l-2.3027344 1.330078c2.6434529 2.999091 8.8222656 1.879515 8.8222656-3.361328zM1.1888645 12.255259l13.0358395-7.5262455c.515847-.2978244 1.061905-.3110814 1.224346-.029724.162441.2813567-.122067.7476281-.637915 1.0454524l-13.0358397 7.5262461c-.5158466.297823-1.06190519.31108-1.22434663.02972-.16244159-.281356.12206872-.747628.63791583-1.045453z"/></svg>