<svg xmlns="http://www.w3.org/2000/svg" xml:space="preserve" width="16" height="16" fill-rule="evenodd" stroke-linejoin="round" stroke-miterlimit="2" clip-rule="evenodd"><path fill="#e0e0e0" d="M 11.687497,3.6145763 C 10.634987,3.570634 9.6128309,4.2127472 9.1993033,5.1821231 8.6566498,6.3065467 8.8287239,7.5760802 8.7988249,8.782545 c -0.010032,1.204953 0.3483942,2.584528 1.4470691,3.244318 0.873427,0.50573 2.030266,0.464926 2.897801,-0.03028 0.836302,-0.500285 1.158908,-1.522286 1.192246,-2.4464588 -0.359376,0 -0.718751,0 -1.078126,0 -0.05819,0.6735328 -0.181697,1.5495918 -0.919925,1.8007868 -0.705423,0.23872 -1.625629,0.124339 -2.027317,-0.575641 C 9.726676,9.7654429 9.908993,8.5717003 9.8769499,7.4574398 9.8651689,6.5359597 9.9332566,5.4521838 10.710933,4.8313732 c 0.595754,-0.4084447 1.520151,-0.4158219 2.059206,0.095062 0.376379,0.4167504 0.446435,1.0044141 0.487668,1.5416564 0.359375,0 0.718751,0 1.078126,0 -0.01195,-1.03695 -0.437276,-2.2138473 -1.46677,-2.6331404 C 12.498176,3.6733423 12.089793,3.6152987 11.687497,3.6145763 Z M 1.6640593,3.7317638 c 0,2.84375 0,5.6875 0,8.5312502 0.359375,0 0.71875,0 1.078125,0 0,-2.8437502 0,-5.6875002 0,-8.5312502 -0.359375,0 -0.71875,0 -1.078125,0 z m 1.9589844,0 c 0,2.84375 0,5.6875 0,8.5312502 0.359375,0 0.71875,0 1.078125,0 0,-1.152344 0,-2.3046877 0,-3.4570314 0.499349,0 0.9986979,0 1.4980469,0 0.5065104,1.1523437 1.0130208,2.3046874 1.5195312,3.4570314 0.3847656,0 0.7695313,0 1.1542969,0 C 8.8160531,11.974608 8.6334465,11.713487 8.5278837,11.435631 8.0908537,10.47705 7.6538237,9.5184694 7.2167937,8.5598888 8.1704293,8.163315 8.6318124,7.0735246 8.5465667,6.0879955 8.5414832,5.1909104 8.0712311,4.2331198 7.1817137,3.9249553 6.3610071,3.6250702 5.4756164,3.7641233 4.6210713,3.7317638 c -0.3326759,0 -0.6653517,0 -0.9980276,0 z m 1.078125,0.9257812 c 0.6291927,0.024245 1.2706094,-0.063437 1.8881532,0.079803 0.8121734,0.2485295 0.9796798,1.2466851 0.8423154,1.9748843 -0.09922,0.7121601 -0.779585,1.2504128 -1.4971795,1.1738283 -0.4110964,0 -0.8221927,0 -1.2332891,0 0,-1.0761719 0,-2.1523438 0,-3.2285156 z" paint-order="fill markers stroke"/></svg>