<svg xmlns="http://www.w3.org/2000/svg" xml:space="preserve" width="16" height="16" fill-rule="evenodd" stroke-linejoin="round" stroke-miterlimit="2" clip-rule="evenodd"><path fill="#b380ff" d="m 4.0000021,0 -2.857145,2.857145 v 10.285722 h 3.428574 v 2.857145 l 2.857145,-2.857145 h 2.285716 L 14.857153,8.000006 V 0 Z M 13.714295,7.428577 11.428579,9.714293 H 9.1428631 L 7.1428616,11.714295 V 9.714293 H 4.5714311 V 1.142858 h 9.1428639 z"/><path fill="#b380ff" d="M 11.497641,2.796746 C 10.833169,2.7690043 10.187861,3.1743834 9.9267928,3.78637 9.5842044,4.4962415 9.6928389,5.2977236 9.6739622,6.0593892 c -0.0063,0.7607113 0.2199482,1.631665 0.9135638,2.0482042 0.551412,0.3192769 1.281749,0.2935169 1.829442,-0.019122 0.527974,-0.3158399 0.731642,-0.9610498 0.752689,-1.5444988 -0.226882,0 -0.453762,0 -0.680643,0 -0.03674,0.4252149 -0.114706,0.9782887 -0.580767,1.1368732 -0.445349,0.1507134 -1.026294,0.078502 -1.279887,-0.3634093 -0.368626,-0.6375242 -0.253526,-1.391158 -0.273755,-2.0946133 -0.0074,-0.5817491 0.03555,-1.2659587 0.52651,-1.657889 0.376112,-0.2578594 0.959703,-0.2625168 1.300019,0.060015 0.237617,0.2631029 0.281844,0.6341069 0.307876,0.9732788 0.22688,0 0.453762,0 0.680642,0 C 13.162069,3.9435804 12.893591,3.2005813 12.24365,2.9358731 12.009438,2.8338458 11.751618,2.797202 11.497641,2.796746 Z M 5.1696405,2.870729 c 0,1.795317 0,3.5906339 0,5.3859504 0.2268807,0 0.4537615,0 0.6806421,0 0,-1.7953165 0,-3.5906334 0,-5.3859504 -0.2268806,0 -0.4537614,0 -0.6806421,0 z m 1.2367465,0 c 0,1.795317 0,3.5906339 0,5.3859504 0.2268807,0 0.4537615,0 0.6806421,0 0,-0.7274975 0,-1.4549954 0,-2.1824934 0.3152492,0 0.6304983,0 0.9457474,0 0.3197703,0.727498 0.6395405,1.4549959 0.9593108,2.1824934 0.2429103,0 0.4858207,0 0.7287306,0 C 9.6848391,8.0746036 9.5695558,7.9097524 9.5029118,7.7343362 9.2270059,7.1291645 8.9511001,6.5239932 8.6751941,5.9188219 9.2772436,5.6684568 9.5685241,4.9804501 9.5147068,4.3582657 9.5114974,3.7919176 9.2146178,3.1872451 8.6530474,2.9926946 8.1349187,2.803371 7.5759537,2.8911581 7.0364621,2.8707288 c -0.210025,0 -0.4200501,0 -0.6300751,2e-7 z M 7.0870291,3.4551933 C 7.4842513,3.4705 7.8891906,3.415144 8.2790585,3.5055746 8.7918001,3.6624763 8.8975502,4.2926322 8.8108292,4.752359 8.7481897,5.2019602 8.3186614,5.5417699 7.8656295,5.4934206 c -0.2595335,0 -0.5190669,0 -0.7786004,0 0,-0.6794091 0,-1.3588182 0,-2.0382273 z" paint-order="fill markers stroke"/></svg>